<svg width="150" height="36" viewBox="0 0 150 36" fill="none" xmlns="http://www.w3.org/2000/svg">
<path d="M72.7747 7.5405C72.7704 7.00345 72.8745 6.47098 73.0809 5.97447C73.2873 5.47796 73.5919 5.02747 73.9766 4.64955C74.3302 4.26079 74.7622 3.95005 75.2446 3.7375C75.727 3.52494 76.2491 3.4153 76.777 3.41568C77.1658 3.39774 77.5543 3.45822 77.9189 3.59346C78.2835 3.7287 78.6167 3.93589 78.8983 4.2025C79.1664 4.48319 79.3745 4.8149 79.5098 5.17757C79.6451 5.54024 79.7048 5.92636 79.6855 6.31259C79.6976 6.85958 79.5973 7.40327 79.3906 7.91055C79.184 8.41782 78.8754 8.87804 78.4836 9.26315C78.1033 9.64899 77.6476 9.95374 77.1443 10.1587C76.6411 10.3637 76.101 10.4646 75.5571 10.4553C75.1833 10.4677 74.8112 10.4013 74.4652 10.2606C74.1192 10.1198 73.8072 9.90784 73.5499 9.63868C73.0297 9.06386 72.7521 8.31265 72.7747 7.5405V7.5405Z" fill="black" style=""/>
<path d="M0 23.6828C0.00365843 20.717 0.370922 17.7626 1.0937 14.8847C1.69281 12.2504 2.6703 9.71501 3.99623 7.35634C4.97301 5.71214 6.37022 4.35297 8.04654 3.4163C9.75831 2.46478 11.6911 1.97367 13.6533 1.99169C16.9945 1.99169 19.5104 2.99508 21.201 5.00185C22.8917 7.00863 23.737 9.98899 23.737 13.9429C23.7381 16.617 23.446 19.2832 22.8656 21.8945C22.363 24.2796 21.5552 26.5912 20.4619 28.7732C19.5095 30.8046 18.0049 32.5324 16.1171 33.7623C14.2336 34.9199 12.0526 35.512 9.83733 35.4671C6.63234 35.4671 4.19854 34.4578 2.53595 32.4391C0.873361 30.4204 0.0280437 27.5016 0 23.6828ZM10.4323 29.1845C11.4256 29.1989 12.3861 28.8315 13.1124 28.1593C13.989 27.2645 14.6379 26.1754 15.0054 24.9822C15.6762 23.0234 16.1866 21.014 16.5318 18.9738C16.8978 17.0308 17.0988 15.0609 17.1327 13.0846C17.2249 11.8218 16.8931 10.5643 16.1892 9.50816C15.8512 9.10182 15.4201 8.78159 14.9319 8.5742C14.4437 8.36682 13.9126 8.27829 13.3829 8.31602C12.3556 8.30211 11.3635 8.68717 10.6186 9.38895C9.72585 10.2714 9.07439 11.3647 8.7256 12.566C8.04616 14.5427 7.53557 16.5725 7.19922 18.634C6.83755 20.5515 6.63655 22.4954 6.59829 24.4457C6.51074 25.6937 6.85408 26.934 7.5718 27.9626C7.921 28.3701 8.36167 28.6909 8.85844 28.8989C9.35521 29.107 9.89424 29.1966 10.4323 29.1607V29.1845Z" fill="black" style=""/>
<path d="M26.8989 13.1265H32.8122L30.6368 26.8361C30.6368 26.8838 30.6368 26.9434 30.6368 27.0209C30.5536 27.464 30.4994 27.912 30.4745 28.3621C30.4574 28.6077 30.4895 28.8542 30.5689 29.0875C30.6484 29.3207 30.7735 29.5361 30.9372 29.7211C31.1168 29.8856 31.3281 30.0122 31.5585 30.0931C31.7889 30.1741 32.0334 30.2077 32.2773 30.192C33.5273 30.192 34.3686 28.8032 34.8013 26.0195V25.948L36.8324 13.1324H42.8057L40.3359 28.1058C39.9353 30.657 39.0499 32.5227 37.6797 33.7029C36.3096 34.8831 34.3466 35.4792 31.7906 35.4911C29.4169 35.4911 27.6141 34.9725 26.3821 33.9294C25.1502 32.8863 24.5312 31.3246 24.5312 29.2919C24.5461 28.5604 24.6002 27.8302 24.6935 27.1044C24.7957 26.1626 24.988 24.8214 25.2584 23.057L26.8989 13.1265Z" fill="black" style=""/>
<path d="M43.6758 35.0614L46.3319 18.2462H44.1265L44.9558 13.126H47.1612L48.1828 6.66455H54.1501L53.1345 13.126H55.7967L54.9674 18.2462H52.2992L49.6191 35.0614H43.6758Z" fill="black" style=""/>
<path d="M57.0938 35.0616L59.7799 18.2464H57.232L58.0613 13.1261H60.5852L61.3303 8.54235C61.3303 8.41717 61.3664 8.25623 61.4025 8.05357C61.8031 5.30766 62.4561 3.39824 63.3615 2.32531C63.9366 1.58942 64.6776 0.997397 65.5249 0.596702C66.3734 0.191196 67.3054 -0.0128778 68.2471 0.000629369C68.8363 -0.00462093 69.4244 0.0513173 70.0019 0.16753C70.5548 0.292004 71.0942 0.46968 71.6124 0.698034L70.6869 6.65876C70.448 6.58921 70.2052 6.53348 69.9598 6.49186C69.7456 6.45378 69.5283 6.43582 69.3108 6.43821C69.0116 6.44481 68.7203 6.53427 68.4696 6.69649C68.219 6.8587 68.0192 7.08719 67.8926 7.35616C67.4247 8.3181 67.1259 9.35226 67.0092 10.414L66.5946 13.1261H69.6834L68.8721 18.2464H65.7593L63.1452 35.0616H57.0938Z" fill="black" style=""/>
<path d="M74.5157 35.0619H68.5664L72.0518 13.1265H78.0312L74.5157 35.0619Z" fill="black" style=""/>
<path d="M79.2031 35.0614L81.8593 18.2462H79.6598L80.4891 13.126H82.6946L83.7102 6.66455H89.6835L88.6679 13.126H91.33L90.4947 18.2462H87.8386L85.1464 35.0614H79.2031Z" fill="black" style=""/>
<path d="M92.418 35.0614L95.0801 18.2462H92.8687L93.698 13.126H95.9094L96.925 6.66455H102.898L101.877 13.126H104.545L103.71 18.2462H101.047L98.3672 35.0614H92.418Z" fill="black" style=""/>
<path d="M116.475 21.8286C116.475 21.6915 116.475 21.5485 116.511 21.3935C116.547 21.2385 116.511 21.012 116.511 20.7318C116.564 19.9252 116.33 19.1255 115.85 18.4727C115.625 18.2034 115.34 17.9898 115.018 17.8491C114.696 17.7083 114.344 17.6443 113.993 17.6621C113.542 17.6627 113.098 17.7638 112.692 17.9577C112.287 18.1517 111.93 18.4336 111.649 18.7827C110.942 19.6569 110.502 20.714 110.381 21.8286H116.475ZM121.006 27.682C120.484 29.8916 119.271 31.8805 117.538 33.3626C115.908 34.7547 113.818 35.5036 111.667 35.4668C109.163 35.4668 107.25 34.7038 105.928 33.1778C104.612 31.64 103.957 29.4107 103.957 26.4541C103.957 22.1624 104.868 18.8006 106.691 16.3686C107.545 15.1916 108.68 14.243 109.994 13.6074C111.308 12.9718 112.76 12.6692 114.221 12.7266C116.625 12.7266 118.478 13.4041 119.78 14.7592C121.082 16.1143 121.739 18.0297 121.751 20.5053C121.751 21.1908 121.715 21.9359 121.637 22.7287C121.558 23.5215 121.444 24.4633 121.276 25.5362H109.708C109.678 25.7448 109.654 25.9534 109.642 26.1323C109.63 26.3111 109.642 26.6151 109.642 26.9429C109.583 27.8425 109.837 28.7349 110.363 29.4703C110.602 29.767 110.908 30.003 111.257 30.1585C111.606 30.314 111.988 30.3846 112.37 30.3644C112.998 30.3752 113.607 30.147 114.071 29.7266C114.619 29.1548 115.004 28.4494 115.189 27.682H121.006Z" fill="black" style=""/>
<path d="M121.965 35.0619L125.45 13.1265H131.177L130.781 16.1545C131.415 15.1607 132.243 14.3017 133.214 13.6272C134.083 13.0623 135.081 12.7221 136.117 12.6377L135.246 18.7713C132.073 18.8905 130.124 21.243 129.398 25.8288C129.338 26.246 129.284 26.5858 129.248 26.8361L127.962 35.0619H121.965Z" fill="black" style=""/>
<path d="M135.141 33.6606L136.06 28.1588C136.835 28.7964 137.699 29.3185 138.626 29.7086C139.411 30.0482 140.257 30.2286 141.114 30.2391C141.573 30.2695 142.027 30.1245 142.382 29.8338C142.533 29.6908 142.651 29.5173 142.729 29.325C142.807 29.1327 142.842 28.9261 142.833 28.7191C142.833 27.8846 142.031 26.8177 140.429 25.5182C140.387 25.4905 140.347 25.4607 140.309 25.4288C139.338 24.6928 138.5 23.7978 137.833 22.7822C137.347 21.9586 137.097 21.0185 137.112 20.0642C137.077 19.0801 137.256 18.1001 137.635 17.1902C138.015 16.2803 138.586 15.4615 139.311 14.7889C140.884 13.3837 142.947 12.6436 145.062 12.7265C145.829 12.7269 146.593 12.8129 147.34 12.9828C148.25 13.1843 149.141 13.4655 150.002 13.8233L149.161 19.4085C148.457 18.9916 147.709 18.6518 146.931 18.3952C146.33 18.1866 145.699 18.0759 145.062 18.0673C144.512 18.0387 143.966 18.1803 143.5 18.4726C143.315 18.5834 143.162 18.7401 143.057 18.9271C142.951 19.1142 142.897 19.3253 142.899 19.5396C142.899 20.082 143.632 20.8867 145.086 21.9775C145.447 22.2458 145.687 22.4604 145.897 22.6094C146.889 23.2951 147.727 24.1756 148.361 25.1963C148.789 26.0591 148.995 27.0132 148.962 27.974C149.004 28.9769 148.835 29.9775 148.464 30.9115C148.094 31.8456 147.531 32.6926 146.811 33.3983C146.056 34.0991 145.167 34.643 144.197 34.9982C143.227 35.3534 142.195 35.5127 141.162 35.4667C140.144 35.4633 139.132 35.3127 138.157 35.0196C137.104 34.68 136.092 34.2241 135.141 33.6606V33.6606Z" fill="black" style=""/>
</svg>